<?xml version="1.0" encoding="UTF-8"?>
<svg xmlns="http://www.w3.org/2000/svg" xmlns:xlink="http://www.w3.org/1999/xlink"
     width="380" height="200" viewBox="0 -200 380 200">
<defs>
</defs>
<rect x="200" y="-172.0" width="117" height="70" fill="#ffffff" stroke-width="2" stroke="black" />
<text x="205" y="-155.0" font-size="12" fill="black" dy="0em">Team Whiteboard</text>
<text x="205" y="-143.0" font-size="12" fill="black" dy="0em">Nonthakorn</text>
<text x="205" y="-131.0" font-size="12" fill="black" dy="0em">Siyang</text>
<text x="205" y="-119.0" font-size="12" fill="black" dy="0em">Pei</text>
<text x="205" y="-107.0" font-size="12" fill="black" dy="0em">Nhat Thanh Van</text>
<rect x="5" y="-87.0" width="117" height="70" fill="#ffffff" stroke-width="2" stroke="black" />
<text x="10" y="-70.0" font-size="12" fill="black" dy="0em">Team Door</text>
<text x="10" y="-58.0" font-size="12" fill="black" dy="0em">Negin</text>
<text x="10" y="-46.0" font-size="12" fill="black" dy="0em">Chaorong</text>
<text x="10" y="-34.0" font-size="12" fill="black" dy="0em">Wei</text>
<text x="10" y="-22.0" font-size="12" fill="black" dy="0em">Thao</text>
<rect x="250" y="-87.0" width="117" height="70" fill="#ffffff" stroke-width="2" stroke="black" />
<text x="255" y="-70.0" font-size="12" fill="black" dy="0em">Team Window</text>
<text x="255" y="-58.0" font-size="12" fill="black" dy="0em">Vignesh</text>
<text x="255" y="-46.0" font-size="12" fill="black" dy="0em">Anthony</text>
<text x="255" y="-34.0" font-size="12" fill="black" dy="0em">Andres</text>
<text x="255" y="-22.0" font-size="12" fill="black" dy="0em">Gabby</text>
<rect x="35" y="-172.0" width="117" height="70" fill="#ffffff" stroke-width="2" stroke="black" />
<text x="40" y="-155.0" font-size="12" fill="black" dy="0em">Team Lectern</text>
<text x="40" y="-143.0" font-size="12" fill="black" dy="0em">Kai</text>
<text x="40" y="-131.0" font-size="12" fill="black" dy="0em">Tianhong</text>
<text x="40" y="-119.0" font-size="12" fill="black" dy="0em">Lulu</text>
<text x="40" y="-107.0" font-size="12" fill="black" dy="0em">Yiyun</text>
<rect x="125" y="-87.0" width="117" height="70" fill="#ffffff" stroke-width="2" stroke="black" />
<text x="130" y="-70.0" font-size="12" fill="black" dy="0em">Team Projector</text>
<text x="130" y="-58.0" font-size="12" fill="black" dy="0em">Kojo</text>
<text x="130" y="-46.0" font-size="12" fill="black" dy="0em">Peijin</text>
<text x="130" y="-34.0" font-size="12" fill="black" dy="0em">Sarah</text>
<text x="130" y="-22.0" font-size="12" fill="black" dy="0em">Yibiao</text>
<text x="5" y="-180" font-size="12" fill="black" dy="0em">Monday, 16 May</text>
</svg>