<?xml version="1.0" encoding="utf-8"?>
<!-- Generator: Adobe Illustrator 26.0.1, SVG Export Plug-In . SVG Version: 6.00 Build 0)  -->
<svg version="1.1" id="Layer_1" xmlns="http://www.w3.org/2000/svg" xmlns:xlink="http://www.w3.org/1999/xlink" x="0px" y="0px"
	 viewBox="0 0 834.56 445.91" style="enable-background:new 0 0 834.56 445.91;" xml:space="preserve">
<style type="text/css">
	.st0{font-family:'ArialMT';}
	.st1{font-size:22.9783px;}
</style>
<text transform="matrix(1 0 0 1 229.7997 108.4298)"><tspan x="0" y="0" class="st0 st1">TEAM LECTERN</tspan><tspan x="0" y="27.57" class="st0 st1">DE ROBLES, GABBY</tspan><tspan x="0" y="55.15" class="st0 st1">TRAN, NHAT THANH VAN</tspan><tspan x="0" y="82.72" class="st0 st1">ZAMORA, ANTHONY</tspan><tspan x="0" y="110.3" class="st0 st1">NGUYEN, THAO</tspan><tspan x="0" y="165.44" class="st0 st1">TEAM PROJECTOR</tspan><tspan x="0" y="193.02" class="st0 st1">OLARANONT, NONTHAKORN</tspan><tspan x="0" y="220.59" class="st0 st1">ELDEEN, SARAH</tspan><tspan x="0" y="248.17" class="st0 st1">LAI, LULU</tspan></text>
<text transform="matrix(1 0 0 1 561.5742 114.4397)"><tspan x="0" y="0" class="st0 st1">TEAM WHITEBOARD</tspan><tspan x="0" y="27.57" class="st0 st1">RAHIMZADEH, NEGIN</tspan><tspan x="0" y="55.15" class="st0 st1">TAN, PEI</tspan><tspan x="0" y="82.72" class="st0 st1">HE, YIYUN</tspan><tspan x="0" y="110.3" class="st0 st1">WANG, TIANHONG</tspan><tspan x="0" y="165.44" class="st0 st1">TEAM WINDOW</tspan><tspan x="0" y="193.02" class="st0 st1">SILKWOOD, KAI</tspan><tspan x="0" y="220.59" class="st0 st1">RUAN, YIBIAO</tspan><tspan x="0" y="248.17" class="st0 st1">CHEN, CHAORONG</tspan></text>
<text transform="matrix(1 0 0 1 50.498 273.873)"><tspan x="0" y="0" class="st0 st1">TEAM DOOR</tspan><tspan x="0" y="27.57" class="st0 st1">WEI, SIYANG</tspan><tspan x="0" y="55.15" class="st0 st1">IYER, VIGNESH</tspan><tspan x="0" y="82.72" class="st0 st1">SHAO, WEI</tspan><tspan x="0" y="110.3" class="st0 st1">GAO, PEIJUN</tspan></text>
</svg>
